<mxfile host="Chrome" modified="2020-07-20T22:29:56.604Z" agent="5.0 (Windows NT 10.0; Win64; x64) AppleWebKit/537.36 (KHTML, like Gecko) Chrome/84.0.4147.89 Safari/537.36" etag="rxoRHOcQ3BfUMcNiozMd" compressed="false" version="13.4.4" type="device" pages="3">
  <diagram id="2jaEJFF6elMT00x7Npk3" name="構成図">
    <mxGraphModel dx="927" dy="485" grid="1" gridSize="10" guides="1" tooltips="1" connect="1" arrows="1" fold="1" page="0" pageScale="1" pageWidth="827" pageHeight="1169" math="0" shadow="0">
      <root>
        <mxCell id="0" />
        <mxCell id="1" parent="0" />
        <mxCell id="iJYgWhPtFce2tys1Y7oZ-6" style="edgeStyle=orthogonalEdgeStyle;rounded=0;orthogonalLoop=1;jettySize=auto;html=1;exitX=1;exitY=0.5;exitDx=0;exitDy=0;entryX=-0.2;entryY=0.079;entryDx=0;entryDy=0;entryPerimeter=0;" edge="1" parent="1" source="NftZhDehfQGxZf9ifYOg-50" target="iJYgWhPtFce2tys1Y7oZ-4">
          <mxGeometry relative="1" as="geometry" />
        </mxCell>
        <mxCell id="NftZhDehfQGxZf9ifYOg-50" value="波形再生器1" style="rounded=0;whiteSpace=wrap;html=1;" vertex="1" parent="1">
          <mxGeometry x="320" y="120" width="130" height="30" as="geometry" />
        </mxCell>
        <mxCell id="NftZhDehfQGxZf9ifYOg-52" value="指令受信器" style="rounded=0;whiteSpace=wrap;html=1;" vertex="1" parent="1">
          <mxGeometry x="40" y="40" width="610" height="40" as="geometry" />
        </mxCell>
        <mxCell id="iJYgWhPtFce2tys1Y7oZ-7" style="edgeStyle=orthogonalEdgeStyle;rounded=0;orthogonalLoop=1;jettySize=auto;html=1;exitX=1;exitY=0.5;exitDx=0;exitDy=0;entryX=-0.086;entryY=0.347;entryDx=0;entryDy=0;entryPerimeter=0;" edge="1" parent="1" source="UU_XJYvqLgQKM5CV62Wv-8" target="iJYgWhPtFce2tys1Y7oZ-4">
          <mxGeometry relative="1" as="geometry" />
        </mxCell>
        <mxCell id="UU_XJYvqLgQKM5CV62Wv-8" value="波形再生器2" style="rounded=0;whiteSpace=wrap;html=1;" vertex="1" parent="1">
          <mxGeometry x="320" y="170" width="130" height="30" as="geometry" />
        </mxCell>
        <mxCell id="iJYgWhPtFce2tys1Y7oZ-8" style="edgeStyle=orthogonalEdgeStyle;rounded=0;orthogonalLoop=1;jettySize=auto;html=1;exitX=1;exitY=0.5;exitDx=0;exitDy=0;entryX=0;entryY=0.605;entryDx=0;entryDy=0;entryPerimeter=0;" edge="1" parent="1" source="UU_XJYvqLgQKM5CV62Wv-9" target="iJYgWhPtFce2tys1Y7oZ-4">
          <mxGeometry relative="1" as="geometry" />
        </mxCell>
        <mxCell id="UU_XJYvqLgQKM5CV62Wv-9" value="波形再生器3" style="rounded=0;whiteSpace=wrap;html=1;" vertex="1" parent="1">
          <mxGeometry x="320" y="220" width="130" height="30" as="geometry" />
        </mxCell>
        <mxCell id="iJYgWhPtFce2tys1Y7oZ-9" style="edgeStyle=orthogonalEdgeStyle;rounded=0;orthogonalLoop=1;jettySize=auto;html=1;exitX=1;exitY=0.5;exitDx=0;exitDy=0;entryX=-0.086;entryY=0.87;entryDx=0;entryDy=0;entryPerimeter=0;" edge="1" parent="1" source="UU_XJYvqLgQKM5CV62Wv-10" target="iJYgWhPtFce2tys1Y7oZ-4">
          <mxGeometry relative="1" as="geometry" />
        </mxCell>
        <mxCell id="UU_XJYvqLgQKM5CV62Wv-10" value="波形再生器4" style="rounded=0;whiteSpace=wrap;html=1;" vertex="1" parent="1">
          <mxGeometry x="320" y="270" width="130" height="30" as="geometry" />
        </mxCell>
        <mxCell id="UU_XJYvqLgQKM5CV62Wv-13" style="edgeStyle=orthogonalEdgeStyle;rounded=0;orthogonalLoop=1;jettySize=auto;html=1;exitX=0.886;exitY=0.03;exitDx=0;exitDy=0;entryX=0;entryY=0.5;entryDx=0;entryDy=0;exitPerimeter=0;" edge="1" parent="1" source="UU_XJYvqLgQKM5CV62Wv-12" target="NftZhDehfQGxZf9ifYOg-50">
          <mxGeometry relative="1" as="geometry" />
        </mxCell>
        <mxCell id="UU_XJYvqLgQKM5CV62Wv-14" style="edgeStyle=orthogonalEdgeStyle;rounded=0;orthogonalLoop=1;jettySize=auto;html=1;exitX=0.8;exitY=0.169;exitDx=0;exitDy=0;entryX=0;entryY=0.5;entryDx=0;entryDy=0;exitPerimeter=0;" edge="1" parent="1" source="UU_XJYvqLgQKM5CV62Wv-12" target="UU_XJYvqLgQKM5CV62Wv-8">
          <mxGeometry relative="1" as="geometry">
            <Array as="points">
              <mxPoint x="295" y="174" />
            </Array>
          </mxGeometry>
        </mxCell>
        <mxCell id="UU_XJYvqLgQKM5CV62Wv-15" style="edgeStyle=orthogonalEdgeStyle;rounded=0;orthogonalLoop=1;jettySize=auto;html=1;exitX=1;exitY=0.25;exitDx=0;exitDy=0;entryX=0;entryY=0.5;entryDx=0;entryDy=0;" edge="1" parent="1" source="UU_XJYvqLgQKM5CV62Wv-12" target="UU_XJYvqLgQKM5CV62Wv-9">
          <mxGeometry relative="1" as="geometry">
            <Array as="points">
              <mxPoint x="270" y="235" />
            </Array>
          </mxGeometry>
        </mxCell>
        <mxCell id="UU_XJYvqLgQKM5CV62Wv-16" style="edgeStyle=orthogonalEdgeStyle;rounded=0;orthogonalLoop=1;jettySize=auto;html=1;exitX=0.714;exitY=0.321;exitDx=0;exitDy=0;entryX=0;entryY=0.5;entryDx=0;entryDy=0;exitPerimeter=0;" edge="1" parent="1" source="UU_XJYvqLgQKM5CV62Wv-12" target="UU_XJYvqLgQKM5CV62Wv-10">
          <mxGeometry relative="1" as="geometry">
            <Array as="points">
              <mxPoint x="267" y="285" />
            </Array>
          </mxGeometry>
        </mxCell>
        <mxCell id="UU_XJYvqLgQKM5CV62Wv-12" value="" style="rounded=0;whiteSpace=wrap;html=1;shadow=0;glass=0;sketch=0;" vertex="1" parent="1">
          <mxGeometry x="260" y="120" width="10" height="420" as="geometry" />
        </mxCell>
        <mxCell id="UU_XJYvqLgQKM5CV62Wv-27" style="edgeStyle=orthogonalEdgeStyle;rounded=0;orthogonalLoop=1;jettySize=auto;html=1;exitX=1;exitY=0.5;exitDx=0;exitDy=0;entryX=-0.143;entryY=0.857;entryDx=0;entryDy=0;entryPerimeter=0;" edge="1" parent="1" source="UU_XJYvqLgQKM5CV62Wv-19" target="UU_XJYvqLgQKM5CV62Wv-12">
          <mxGeometry relative="1" as="geometry" />
        </mxCell>
        <mxCell id="UU_XJYvqLgQKM5CV62Wv-19" value="DCC波形生成器1" style="rounded=0;whiteSpace=wrap;html=1;shadow=0;glass=0;sketch=0;" vertex="1" parent="1">
          <mxGeometry x="60" y="470" width="110" height="30" as="geometry" />
        </mxCell>
        <mxCell id="UU_XJYvqLgQKM5CV62Wv-28" style="edgeStyle=orthogonalEdgeStyle;rounded=0;orthogonalLoop=1;jettySize=auto;html=1;exitX=1;exitY=0.5;exitDx=0;exitDy=0;entryX=0.086;entryY=0.97;entryDx=0;entryDy=0;entryPerimeter=0;" edge="1" parent="1" source="UU_XJYvqLgQKM5CV62Wv-20" target="UU_XJYvqLgQKM5CV62Wv-12">
          <mxGeometry relative="1" as="geometry" />
        </mxCell>
        <mxCell id="UU_XJYvqLgQKM5CV62Wv-20" value="DCC波形生成器2" style="rounded=0;whiteSpace=wrap;html=1;shadow=0;glass=0;sketch=0;" vertex="1" parent="1">
          <mxGeometry x="60" y="520" width="110" height="30" as="geometry" />
        </mxCell>
        <mxCell id="iJYgWhPtFce2tys1Y7oZ-18" style="edgeStyle=orthogonalEdgeStyle;rounded=0;orthogonalLoop=1;jettySize=auto;html=1;exitX=1;exitY=0.5;exitDx=0;exitDy=0;entryX=-0.2;entryY=0.291;entryDx=0;entryDy=0;entryPerimeter=0;" edge="1" parent="1" source="UU_XJYvqLgQKM5CV62Wv-22" target="UU_XJYvqLgQKM5CV62Wv-12">
          <mxGeometry relative="1" as="geometry" />
        </mxCell>
        <mxCell id="UU_XJYvqLgQKM5CV62Wv-22" value="列車2" style="rounded=0;whiteSpace=wrap;html=1;shadow=0;glass=0;sketch=0;" vertex="1" parent="1">
          <mxGeometry x="60" y="230" width="105" height="30" as="geometry" />
        </mxCell>
        <mxCell id="iJYgWhPtFce2tys1Y7oZ-20" style="edgeStyle=orthogonalEdgeStyle;rounded=0;orthogonalLoop=1;jettySize=auto;html=1;exitX=1;exitY=0.5;exitDx=0;exitDy=0;entryX=-0.086;entryY=0.521;entryDx=0;entryDy=0;entryPerimeter=0;" edge="1" parent="1" source="UU_XJYvqLgQKM5CV62Wv-23" target="UU_XJYvqLgQKM5CV62Wv-12">
          <mxGeometry relative="1" as="geometry" />
        </mxCell>
        <mxCell id="UU_XJYvqLgQKM5CV62Wv-23" value="列車8" style="rounded=0;whiteSpace=wrap;html=1;shadow=0;glass=0;sketch=0;" vertex="1" parent="1">
          <mxGeometry x="62.5" y="330" width="105" height="30" as="geometry" />
        </mxCell>
        <mxCell id="UU_XJYvqLgQKM5CV62Wv-24" value="●&lt;br&gt;●&lt;br&gt;●" style="text;html=1;strokeColor=none;fillColor=none;align=center;verticalAlign=middle;whiteSpace=wrap;rounded=0;shadow=0;glass=0;sketch=0;" vertex="1" parent="1">
          <mxGeometry x="87.5" y="290" width="40" height="20" as="geometry" />
        </mxCell>
        <mxCell id="iJYgWhPtFce2tys1Y7oZ-10" style="edgeStyle=orthogonalEdgeStyle;rounded=0;orthogonalLoop=1;jettySize=auto;html=1;exitX=1.114;exitY=0.115;exitDx=0;exitDy=0;entryX=0;entryY=0.5;entryDx=0;entryDy=0;exitPerimeter=0;" edge="1" parent="1" source="iJYgWhPtFce2tys1Y7oZ-4" target="NftZhDehfQGxZf9ifYOg-51">
          <mxGeometry relative="1" as="geometry" />
        </mxCell>
        <mxCell id="iJYgWhPtFce2tys1Y7oZ-11" style="edgeStyle=orthogonalEdgeStyle;rounded=0;orthogonalLoop=1;jettySize=auto;html=1;exitX=1;exitY=0.377;exitDx=0;exitDy=0;entryX=0;entryY=0.5;entryDx=0;entryDy=0;exitPerimeter=0;" edge="1" parent="1" source="iJYgWhPtFce2tys1Y7oZ-4" target="iJYgWhPtFce2tys1Y7oZ-1">
          <mxGeometry relative="1" as="geometry" />
        </mxCell>
        <mxCell id="iJYgWhPtFce2tys1Y7oZ-12" style="edgeStyle=orthogonalEdgeStyle;rounded=0;orthogonalLoop=1;jettySize=auto;html=1;exitX=1.057;exitY=0.635;exitDx=0;exitDy=0;entryX=0;entryY=0.5;entryDx=0;entryDy=0;exitPerimeter=0;" edge="1" parent="1" source="iJYgWhPtFce2tys1Y7oZ-4" target="iJYgWhPtFce2tys1Y7oZ-2">
          <mxGeometry relative="1" as="geometry" />
        </mxCell>
        <mxCell id="iJYgWhPtFce2tys1Y7oZ-13" style="edgeStyle=orthogonalEdgeStyle;rounded=0;orthogonalLoop=1;jettySize=auto;html=1;exitX=1.114;exitY=0.894;exitDx=0;exitDy=0;entryX=0;entryY=0.5;entryDx=0;entryDy=0;exitPerimeter=0;" edge="1" parent="1" source="iJYgWhPtFce2tys1Y7oZ-4" target="iJYgWhPtFce2tys1Y7oZ-3">
          <mxGeometry relative="1" as="geometry" />
        </mxCell>
        <mxCell id="iJYgWhPtFce2tys1Y7oZ-4" value="" style="rounded=0;whiteSpace=wrap;html=1;shadow=0;glass=0;sketch=0;" vertex="1" parent="1">
          <mxGeometry x="500" y="120" width="10" height="190" as="geometry" />
        </mxCell>
        <mxCell id="NftZhDehfQGxZf9ifYOg-51" value="電力出力1" style="rounded=0;whiteSpace=wrap;html=1;" vertex="1" parent="1">
          <mxGeometry x="560" y="120" width="90" height="40" as="geometry" />
        </mxCell>
        <mxCell id="iJYgWhPtFce2tys1Y7oZ-1" value="電力出力2" style="rounded=0;whiteSpace=wrap;html=1;" vertex="1" parent="1">
          <mxGeometry x="560" y="170" width="90" height="40" as="geometry" />
        </mxCell>
        <mxCell id="iJYgWhPtFce2tys1Y7oZ-2" value="電力出力3" style="rounded=0;whiteSpace=wrap;html=1;" vertex="1" parent="1">
          <mxGeometry x="560" y="220" width="90" height="40" as="geometry" />
        </mxCell>
        <mxCell id="iJYgWhPtFce2tys1Y7oZ-3" value="電力出力4" style="rounded=0;whiteSpace=wrap;html=1;" vertex="1" parent="1">
          <mxGeometry x="560" y="270" width="90" height="40" as="geometry" />
        </mxCell>
        <mxCell id="UU_XJYvqLgQKM5CV62Wv-6" style="edgeStyle=orthogonalEdgeStyle;rounded=0;orthogonalLoop=1;jettySize=auto;html=1;entryX=0;entryY=0.5;entryDx=0;entryDy=0;fontStyle=4" edge="1" parent="1" target="UU_XJYvqLgQKM5CV62Wv-3">
          <mxGeometry relative="1" as="geometry">
            <mxPoint x="65" y="160" as="sourcePoint" />
          </mxGeometry>
        </mxCell>
        <mxCell id="iJYgWhPtFce2tys1Y7oZ-17" style="edgeStyle=orthogonalEdgeStyle;rounded=0;orthogonalLoop=1;jettySize=auto;html=1;exitX=1;exitY=0.5;exitDx=0;exitDy=0;entryX=-0.429;entryY=0.048;entryDx=0;entryDy=0;entryPerimeter=0;" edge="1" parent="1" source="UU_XJYvqLgQKM5CV62Wv-2" target="UU_XJYvqLgQKM5CV62Wv-12">
          <mxGeometry relative="1" as="geometry" />
        </mxCell>
        <mxCell id="UU_XJYvqLgQKM5CV62Wv-2" value="列車1" style="rounded=0;whiteSpace=wrap;html=1;shadow=0;glass=0;sketch=0;fontStyle=4" vertex="1" parent="1">
          <mxGeometry x="60" y="120" width="105" height="40" as="geometry" />
        </mxCell>
        <mxCell id="UU_XJYvqLgQKM5CV62Wv-3" value="電力波形生成器" style="rounded=0;whiteSpace=wrap;html=1;shadow=0;glass=0;sketch=0;fontStyle=4" vertex="1" parent="1">
          <mxGeometry x="105" y="172" width="117.5" height="20" as="geometry" />
        </mxCell>
        <mxCell id="UU_XJYvqLgQKM5CV62Wv-4" value="電力波形生成器" style="rounded=0;whiteSpace=wrap;html=1;shadow=0;glass=0;sketch=0;fontStyle=4" vertex="1" parent="1">
          <mxGeometry x="105" y="192" width="117.5" height="20" as="geometry" />
        </mxCell>
        <mxCell id="UU_XJYvqLgQKM5CV62Wv-7" style="edgeStyle=orthogonalEdgeStyle;rounded=0;orthogonalLoop=1;jettySize=auto;html=1;exitX=0.067;exitY=1.025;exitDx=0;exitDy=0;entryX=0;entryY=0.5;entryDx=0;entryDy=0;exitPerimeter=0;fontStyle=4" edge="1" parent="1" source="UU_XJYvqLgQKM5CV62Wv-2" target="UU_XJYvqLgQKM5CV62Wv-4">
          <mxGeometry relative="1" as="geometry" />
        </mxCell>
        <mxCell id="UU_XJYvqLgQKM5CV62Wv-11" style="edgeStyle=orthogonalEdgeStyle;rounded=0;orthogonalLoop=1;jettySize=auto;html=1;exitX=0.25;exitY=1;exitDx=0;exitDy=0;entryX=0.25;entryY=1;entryDx=0;entryDy=0;fontStyle=4" edge="1" parent="1" source="UU_XJYvqLgQKM5CV62Wv-2" target="UU_XJYvqLgQKM5CV62Wv-2">
          <mxGeometry relative="1" as="geometry" />
        </mxCell>
        <mxCell id="iJYgWhPtFce2tys1Y7oZ-22" value="" style="curved=1;endArrow=classic;html=1;" edge="1" parent="1" target="iJYgWhPtFce2tys1Y7oZ-23">
          <mxGeometry width="50" height="50" relative="1" as="geometry">
            <mxPoint x="140" y="450" as="sourcePoint" />
            <mxPoint x="290" y="380" as="targetPoint" />
            <Array as="points">
              <mxPoint x="290" y="430" />
              <mxPoint x="240" y="380" />
            </Array>
          </mxGeometry>
        </mxCell>
        <mxCell id="iJYgWhPtFce2tys1Y7oZ-23" value="" style="rounded=0;whiteSpace=wrap;html=1;" vertex="1" parent="1">
          <mxGeometry x="510" y="350" width="120" height="60" as="geometry" />
        </mxCell>
      </root>
    </mxGraphModel>
  </diagram>
  <diagram id="n3mS9vPz6F_c3xXIx07G" name="クラス図">
    <mxGraphModel dx="1327" dy="485" grid="1" gridSize="10" guides="1" tooltips="1" connect="1" arrows="1" fold="1" page="0" pageScale="1" pageWidth="827" pageHeight="1169" background="none" math="0" shadow="0">
      <root>
        <mxCell id="1h-r_A_dMQ0M1afdq_Zn-0" />
        <mxCell id="1h-r_A_dMQ0M1afdq_Zn-1" parent="1h-r_A_dMQ0M1afdq_Zn-0" />
        <mxCell id="1h-r_A_dMQ0M1afdq_Zn-2" value="列車" style="swimlane;fontStyle=0;childLayout=stackLayout;horizontal=1;startSize=26;fillColor=none;horizontalStack=0;resizeParent=1;resizeParentMax=0;resizeLast=0;collapsible=1;marginBottom=0;" vertex="1" parent="1h-r_A_dMQ0M1afdq_Zn-1">
          <mxGeometry x="80" y="70" width="180" height="258" as="geometry">
            <mxRectangle x="70" y="70" width="60" height="26" as="alternateBounds" />
          </mxGeometry>
        </mxCell>
        <mxCell id="OqO-5FwDdzpUF67l9lf4-7" value="+ 速度: float" style="text;strokeColor=none;fillColor=none;align=left;verticalAlign=top;spacingLeft=4;spacingRight=4;overflow=hidden;rotatable=0;points=[[0,0.5],[1,0.5]];portConstraint=eastwest;shadow=0;glass=0;sketch=0;" vertex="1" parent="1h-r_A_dMQ0M1afdq_Zn-2">
          <mxGeometry y="26" width="180" height="26" as="geometry" />
        </mxCell>
        <mxCell id="7OYIcMVaYCkG0HnnDKbP-6" value="+ 方向: int8_t" style="text;strokeColor=none;fillColor=none;align=left;verticalAlign=top;spacingLeft=4;spacingRight=4;overflow=hidden;rotatable=0;points=[[0,0.5],[1,0.5]];portConstraint=eastwest;" vertex="1" parent="1h-r_A_dMQ0M1afdq_Zn-2">
          <mxGeometry y="52" width="180" height="26" as="geometry" />
        </mxCell>
        <mxCell id="OqO-5FwDdzpUF67l9lf4-2" value="" style="line;strokeWidth=1;fillColor=none;align=left;verticalAlign=middle;spacingTop=-1;spacingLeft=3;spacingRight=3;rotatable=0;labelPosition=right;points=[];portConstraint=eastwest;shadow=0;glass=0;sketch=0;" vertex="1" parent="1h-r_A_dMQ0M1afdq_Zn-2">
          <mxGeometry y="78" width="180" height="8" as="geometry" />
        </mxCell>
        <mxCell id="7OYIcMVaYCkG0HnnDKbP-5" value="+ 波形生成器" style="text;strokeColor=none;fillColor=none;align=left;verticalAlign=top;spacingLeft=4;spacingRight=4;overflow=hidden;rotatable=0;points=[[0,0.5],[1,0.5]];portConstraint=eastwest;" vertex="1" parent="1h-r_A_dMQ0M1afdq_Zn-2">
          <mxGeometry y="86" width="180" height="26" as="geometry" />
        </mxCell>
        <mxCell id="C7HTw3OPU88ucNkPCg-P-0" value="+ 波形設定()" style="text;strokeColor=none;fillColor=none;align=left;verticalAlign=top;spacingLeft=4;spacingRight=4;overflow=hidden;rotatable=0;points=[[0,0.5],[1,0.5]];portConstraint=eastwest;" vertex="1" parent="1h-r_A_dMQ0M1afdq_Zn-2">
          <mxGeometry y="112" width="180" height="26" as="geometry" />
        </mxCell>
        <mxCell id="1h-r_A_dMQ0M1afdq_Zn-5" value="+ 波形生成()" style="text;strokeColor=none;fillColor=none;align=left;verticalAlign=top;spacingLeft=4;spacingRight=4;overflow=hidden;rotatable=0;points=[[0,0.5],[1,0.5]];portConstraint=eastwest;" vertex="1" parent="1h-r_A_dMQ0M1afdq_Zn-2">
          <mxGeometry y="138" width="180" height="26" as="geometry" />
        </mxCell>
        <mxCell id="OqO-5FwDdzpUF67l9lf4-9" value="" style="line;strokeWidth=1;fillColor=none;align=left;verticalAlign=middle;spacingTop=-1;spacingLeft=3;spacingRight=3;rotatable=0;labelPosition=right;points=[];portConstraint=eastwest;" vertex="1" parent="1h-r_A_dMQ0M1afdq_Zn-2">
          <mxGeometry y="164" width="180" height="8" as="geometry" />
        </mxCell>
        <mxCell id="1h-r_A_dMQ0M1afdq_Zn-4" value="+ 基底電圧: float" style="text;strokeColor=none;fillColor=none;align=left;verticalAlign=top;spacingLeft=4;spacingRight=4;overflow=hidden;rotatable=0;points=[[0,0.5],[1,0.5]];portConstraint=eastwest;" vertex="1" parent="1h-r_A_dMQ0M1afdq_Zn-2">
          <mxGeometry y="172" width="180" height="26" as="geometry" />
        </mxCell>
        <mxCell id="OqO-5FwDdzpUF67l9lf4-10" value="+ 頂圧時速: float" style="text;strokeColor=none;fillColor=none;align=left;verticalAlign=top;spacingLeft=4;spacingRight=4;overflow=hidden;rotatable=0;points=[[0,0.5],[1,0.5]];portConstraint=eastwest;" vertex="1" parent="1h-r_A_dMQ0M1afdq_Zn-2">
          <mxGeometry y="198" width="180" height="26" as="geometry" />
        </mxCell>
        <mxCell id="7OYIcMVaYCkG0HnnDKbP-1" value="" style="line;strokeWidth=1;fillColor=none;align=left;verticalAlign=middle;spacingTop=-1;spacingLeft=3;spacingRight=3;rotatable=0;labelPosition=right;points=[];portConstraint=eastwest;" vertex="1" parent="1h-r_A_dMQ0M1afdq_Zn-2">
          <mxGeometry y="224" width="180" height="8" as="geometry" />
        </mxCell>
        <mxCell id="1h-r_A_dMQ0M1afdq_Zn-3" value="+ 電圧: float" style="text;strokeColor=none;fillColor=none;align=left;verticalAlign=top;spacingLeft=4;spacingRight=4;overflow=hidden;rotatable=0;points=[[0,0.5],[1,0.5]];portConstraint=eastwest;" vertex="1" parent="1h-r_A_dMQ0M1afdq_Zn-2">
          <mxGeometry y="232" width="180" height="26" as="geometry" />
        </mxCell>
        <mxCell id="7OYIcMVaYCkG0HnnDKbP-7" value="波形再生器" style="swimlane;fontStyle=0;childLayout=stackLayout;horizontal=1;startSize=26;fillColor=none;horizontalStack=0;resizeParent=1;resizeParentMax=0;resizeLast=0;collapsible=1;marginBottom=0;" vertex="1" parent="1h-r_A_dMQ0M1afdq_Zn-1">
          <mxGeometry x="550" y="70" width="180" height="104" as="geometry" />
        </mxCell>
        <mxCell id="7OYIcMVaYCkG0HnnDKbP-8" value="+ 生成器: 波形生成器 *" style="text;strokeColor=none;fillColor=none;align=left;verticalAlign=top;spacingLeft=4;spacingRight=4;overflow=hidden;rotatable=0;points=[[0,0.5],[1,0.5]];portConstraint=eastwest;" vertex="1" parent="7OYIcMVaYCkG0HnnDKbP-7">
          <mxGeometry y="26" width="180" height="26" as="geometry" />
        </mxCell>
        <mxCell id="7OYIcMVaYCkG0HnnDKbP-9" value="+ バッファー処理()" style="text;strokeColor=none;fillColor=none;align=left;verticalAlign=top;spacingLeft=4;spacingRight=4;overflow=hidden;rotatable=0;points=[[0,0.5],[1,0.5]];portConstraint=eastwest;" vertex="1" parent="7OYIcMVaYCkG0HnnDKbP-7">
          <mxGeometry y="52" width="180" height="26" as="geometry" />
        </mxCell>
        <mxCell id="7OYIcMVaYCkG0HnnDKbP-10" value="+ サンプル処理()" style="text;strokeColor=none;fillColor=none;align=left;verticalAlign=top;spacingLeft=4;spacingRight=4;overflow=hidden;rotatable=0;points=[[0,0.5],[1,0.5]];portConstraint=eastwest;" vertex="1" parent="7OYIcMVaYCkG0HnnDKbP-7">
          <mxGeometry y="78" width="180" height="26" as="geometry" />
        </mxCell>
        <mxCell id="1h-r_A_dMQ0M1afdq_Zn-15" value="電力ポート" style="swimlane;fontStyle=0;childLayout=stackLayout;horizontal=1;startSize=26;fillColor=none;horizontalStack=0;resizeParent=1;resizeParentMax=0;resizeLast=0;collapsible=1;marginBottom=0;glass=0;shadow=0;" vertex="1" parent="1h-r_A_dMQ0M1afdq_Zn-1">
          <mxGeometry x="780" y="70" width="180" height="52" as="geometry" />
        </mxCell>
        <mxCell id="1h-r_A_dMQ0M1afdq_Zn-16" value="+ 再生器選択" style="text;strokeColor=none;fillColor=none;align=left;verticalAlign=top;spacingLeft=4;spacingRight=4;overflow=hidden;rotatable=0;points=[[0,0.5],[1,0.5]];portConstraint=eastwest;" vertex="1" parent="1h-r_A_dMQ0M1afdq_Zn-15">
          <mxGeometry y="26" width="180" height="26" as="geometry" />
        </mxCell>
        <mxCell id="IpKgK4iWvhRq2tWbjL7e-0" value="1..*" style="endArrow=open;html=1;endSize=12;startArrow=diamondThin;startSize=14;startFill=1;edgeStyle=orthogonalEdgeStyle;align=left;verticalAlign=bottom;entryX=0;entryY=0.5;entryDx=0;entryDy=0;" edge="1" parent="1h-r_A_dMQ0M1afdq_Zn-1" target="1h-r_A_dMQ0M1afdq_Zn-12">
          <mxGeometry x="-1" y="3" relative="1" as="geometry">
            <mxPoint x="260" y="170" as="sourcePoint" />
            <mxPoint x="420" y="170" as="targetPoint" />
          </mxGeometry>
        </mxCell>
        <mxCell id="IpKgK4iWvhRq2tWbjL7e-1" value="«interface»&lt;br&gt;&lt;b&gt;波形生成器&lt;/b&gt;" style="html=1;shadow=0;glass=0;sketch=0;" vertex="1" parent="1h-r_A_dMQ0M1afdq_Zn-1">
          <mxGeometry x="80" y="450" width="180" height="50" as="geometry" />
        </mxCell>
        <mxCell id="OqO-5FwDdzpUF67l9lf4-11" value="列車制御A" style="swimlane;fontStyle=0;childLayout=stackLayout;horizontal=1;startSize=26;fillColor=none;horizontalStack=0;resizeParent=1;resizeParentMax=0;resizeLast=0;collapsible=1;marginBottom=0;shadow=0;glass=0;sketch=0;" vertex="1" parent="1h-r_A_dMQ0M1afdq_Zn-1">
          <mxGeometry x="-300" y="70" width="180" height="104" as="geometry" />
        </mxCell>
        <mxCell id="OqO-5FwDdzpUF67l9lf4-12" value="+ 加速度: float" style="text;strokeColor=none;fillColor=none;align=left;verticalAlign=top;spacingLeft=4;spacingRight=4;overflow=hidden;rotatable=0;points=[[0,0.5],[1,0.5]];portConstraint=eastwest;" vertex="1" parent="OqO-5FwDdzpUF67l9lf4-11">
          <mxGeometry y="26" width="180" height="26" as="geometry" />
        </mxCell>
        <mxCell id="OqO-5FwDdzpUF67l9lf4-13" value="+ 上限時速: float" style="text;strokeColor=none;fillColor=none;align=left;verticalAlign=top;spacingLeft=4;spacingRight=4;overflow=hidden;rotatable=0;points=[[0,0.5],[1,0.5]];portConstraint=eastwest;" vertex="1" parent="OqO-5FwDdzpUF67l9lf4-11">
          <mxGeometry y="52" width="180" height="26" as="geometry" />
        </mxCell>
        <mxCell id="OqO-5FwDdzpUF67l9lf4-14" value="+ field: type" style="text;strokeColor=none;fillColor=none;align=left;verticalAlign=top;spacingLeft=4;spacingRight=4;overflow=hidden;rotatable=0;points=[[0,0.5],[1,0.5]];portConstraint=eastwest;" vertex="1" parent="OqO-5FwDdzpUF67l9lf4-11">
          <mxGeometry y="78" width="180" height="26" as="geometry" />
        </mxCell>
        <mxCell id="IpKgK4iWvhRq2tWbjL7e-6" value="" style="endArrow=block;dashed=1;endFill=0;endSize=12;html=1;entryX=0.5;entryY=0;entryDx=0;entryDy=0;exitX=0.494;exitY=1.093;exitDx=0;exitDy=0;exitPerimeter=0;" edge="1" parent="1h-r_A_dMQ0M1afdq_Zn-1" source="1h-r_A_dMQ0M1afdq_Zn-3" target="IpKgK4iWvhRq2tWbjL7e-1">
          <mxGeometry width="160" relative="1" as="geometry">
            <mxPoint x="70" y="310" as="sourcePoint" />
            <mxPoint x="230" y="310" as="targetPoint" />
          </mxGeometry>
        </mxCell>
        <mxCell id="IpKgK4iWvhRq2tWbjL7e-7" value="" style="endArrow=block;dashed=1;endFill=0;endSize=12;html=1;entryX=0.5;entryY=0;entryDx=0;entryDy=0;exitX=0.506;exitY=1.159;exitDx=0;exitDy=0;exitPerimeter=0;" edge="1" parent="1h-r_A_dMQ0M1afdq_Zn-1" source="IpKgK4iWvhRq2tWbjL7e-5" target="IpKgK4iWvhRq2tWbjL7e-1">
          <mxGeometry width="160" relative="1" as="geometry">
            <mxPoint x="50" y="360" as="sourcePoint" />
            <mxPoint x="180" y="390" as="targetPoint" />
            <Array as="points">
              <mxPoint x="-189" y="390" />
            </Array>
          </mxGeometry>
        </mxCell>
        <mxCell id="IpKgK4iWvhRq2tWbjL7e-8" value="" style="endArrow=block;dashed=1;endFill=0;endSize=12;html=1;entryX=0.544;entryY=-0.054;entryDx=0;entryDy=0;exitX=0.486;exitY=1.027;exitDx=0;exitDy=0;exitPerimeter=0;entryPerimeter=0;" edge="1" parent="1h-r_A_dMQ0M1afdq_Zn-1" source="1h-r_A_dMQ0M1afdq_Zn-12" target="IpKgK4iWvhRq2tWbjL7e-1">
          <mxGeometry width="160" relative="1" as="geometry">
            <mxPoint x="340" y="290" as="sourcePoint" />
            <mxPoint x="180" y="390" as="targetPoint" />
            <Array as="points">
              <mxPoint x="387" y="410" />
            </Array>
          </mxGeometry>
        </mxCell>
        <mxCell id="IpKgK4iWvhRq2tWbjL7e-10" value="Relation" style="endArrow=open;html=1;endSize=12;startArrow=diamondThin;startSize=14;startFill=0;edgeStyle=orthogonalEdgeStyle;exitX=1;exitY=0.5;exitDx=0;exitDy=0;entryX=0;entryY=0.5;entryDx=0;entryDy=0;" edge="1" parent="1h-r_A_dMQ0M1afdq_Zn-1" source="7OYIcMVaYCkG0HnnDKbP-8" target="IpKgK4iWvhRq2tWbjL7e-1">
          <mxGeometry relative="1" as="geometry">
            <mxPoint x="720" y="200" as="sourcePoint" />
            <mxPoint x="310" y="380" as="targetPoint" />
            <Array as="points">
              <mxPoint x="760" y="109" />
              <mxPoint x="760" y="380" />
              <mxPoint x="40" y="380" />
              <mxPoint x="40" y="475" />
            </Array>
          </mxGeometry>
        </mxCell>
        <mxCell id="IpKgK4iWvhRq2tWbjL7e-11" value="0..n" style="edgeLabel;resizable=0;html=1;align=left;verticalAlign=top;" connectable="0" vertex="1" parent="IpKgK4iWvhRq2tWbjL7e-10">
          <mxGeometry x="-1" relative="1" as="geometry" />
        </mxCell>
        <mxCell id="IpKgK4iWvhRq2tWbjL7e-12" value="1" style="edgeLabel;resizable=0;html=1;align=right;verticalAlign=top;" connectable="0" vertex="1" parent="IpKgK4iWvhRq2tWbjL7e-10">
          <mxGeometry x="1" relative="1" as="geometry" />
        </mxCell>
        <mxCell id="IpKgK4iWvhRq2tWbjL7e-2" value="DCC波形生成器" style="swimlane;fontStyle=0;childLayout=stackLayout;horizontal=1;startSize=26;fillColor=none;horizontalStack=0;resizeParent=1;resizeParentMax=0;resizeLast=0;collapsible=1;marginBottom=0;shadow=0;glass=0;sketch=0;" vertex="1" parent="1h-r_A_dMQ0M1afdq_Zn-1">
          <mxGeometry x="-260" y="250" width="140" height="104" as="geometry" />
        </mxCell>
        <mxCell id="IpKgK4iWvhRq2tWbjL7e-3" value="+ 列車リスト: 列車[]" style="text;strokeColor=none;fillColor=none;align=left;verticalAlign=top;spacingLeft=4;spacingRight=4;overflow=hidden;rotatable=0;points=[[0,0.5],[1,0.5]];portConstraint=eastwest;" vertex="1" parent="IpKgK4iWvhRq2tWbjL7e-2">
          <mxGeometry y="26" width="140" height="26" as="geometry" />
        </mxCell>
        <mxCell id="IpKgK4iWvhRq2tWbjL7e-4" value="+ field: type" style="text;strokeColor=none;fillColor=none;align=left;verticalAlign=top;spacingLeft=4;spacingRight=4;overflow=hidden;rotatable=0;points=[[0,0.5],[1,0.5]];portConstraint=eastwest;" vertex="1" parent="IpKgK4iWvhRq2tWbjL7e-2">
          <mxGeometry y="52" width="140" height="26" as="geometry" />
        </mxCell>
        <mxCell id="IpKgK4iWvhRq2tWbjL7e-5" value="+ field: type" style="text;strokeColor=none;fillColor=none;align=left;verticalAlign=top;spacingLeft=4;spacingRight=4;overflow=hidden;rotatable=0;points=[[0,0.5],[1,0.5]];portConstraint=eastwest;" vertex="1" parent="IpKgK4iWvhRq2tWbjL7e-2">
          <mxGeometry y="78" width="140" height="26" as="geometry" />
        </mxCell>
        <mxCell id="nMDidbtoThkopvu9OJYs-0" value="0.." style="endArrow=open;html=1;endSize=12;startArrow=diamondThin;startSize=14;startFill=0;edgeStyle=orthogonalEdgeStyle;align=left;verticalAlign=bottom;entryX=-0.024;entryY=0.048;entryDx=0;entryDy=0;entryPerimeter=0;" edge="1" parent="1h-r_A_dMQ0M1afdq_Zn-1" target="1h-r_A_dMQ0M1afdq_Zn-2">
          <mxGeometry x="-1" y="3" relative="1" as="geometry">
            <mxPoint x="-120" y="301.5" as="sourcePoint" />
            <mxPoint x="40" y="301.5" as="targetPoint" />
          </mxGeometry>
        </mxCell>
        <mxCell id="1h-r_A_dMQ0M1afdq_Zn-11" value="波形生成器" style="swimlane;fontStyle=0;childLayout=stackLayout;horizontal=1;startSize=26;fillColor=none;horizontalStack=0;resizeParent=1;resizeParentMax=0;resizeLast=0;collapsible=1;marginBottom=0;" vertex="1" parent="1h-r_A_dMQ0M1afdq_Zn-1">
          <mxGeometry x="300" y="140" width="180" height="52" as="geometry" />
        </mxCell>
        <mxCell id="1h-r_A_dMQ0M1afdq_Zn-12" value="+ 波形生成( 列車, 出力バッファ, バッファ長 ): void" style="text;strokeColor=none;fillColor=none;align=left;verticalAlign=top;spacingLeft=4;spacingRight=4;overflow=hidden;rotatable=0;points=[[0,0.5],[1,0.5]];portConstraint=eastwest;" vertex="1" parent="1h-r_A_dMQ0M1afdq_Zn-11">
          <mxGeometry y="26" width="180" height="26" as="geometry" />
        </mxCell>
      </root>
    </mxGraphModel>
  </diagram>
  <diagram id="9JKbAJeFxf8ZqAXsQjzA" name="コマンド">
    <mxGraphModel dx="927" dy="485" grid="1" gridSize="10" guides="1" tooltips="1" connect="1" arrows="1" fold="1" page="1" pageScale="1" pageWidth="827" pageHeight="1169" math="0" shadow="0">
      <root>
        <mxCell id="rjAtlHc9Mm2-FmLIx99G-0" />
        <mxCell id="rjAtlHc9Mm2-FmLIx99G-1" parent="rjAtlHc9Mm2-FmLIx99G-0" />
        <mxCell id="mJA4CwDew6_XC7uNNBjb-0" value="Pool" style="swimlane;html=1;childLayout=stackLayout;resizeParent=1;resizeParentMax=0;horizontal=1;startSize=20;horizontalStack=0;shadow=0;glass=0;sketch=0;" vertex="1" parent="rjAtlHc9Mm2-FmLIx99G-1">
          <mxGeometry x="580" y="30" width="480" height="380" as="geometry" />
        </mxCell>
        <mxCell id="mJA4CwDew6_XC7uNNBjb-1" value="Lane 1" style="swimlane;html=1;startSize=20;horizontal=0;" vertex="1" parent="mJA4CwDew6_XC7uNNBjb-0">
          <mxGeometry y="20" width="480" height="120" as="geometry" />
        </mxCell>
        <mxCell id="mJA4CwDew6_XC7uNNBjb-2" value="Lane 2" style="swimlane;html=1;startSize=20;horizontal=0;" vertex="1" parent="mJA4CwDew6_XC7uNNBjb-0">
          <mxGeometry y="140" width="480" height="120" as="geometry" />
        </mxCell>
        <mxCell id="mJA4CwDew6_XC7uNNBjb-3" value="Lane 3" style="swimlane;html=1;startSize=20;horizontal=0;" vertex="1" parent="mJA4CwDew6_XC7uNNBjb-0">
          <mxGeometry y="260" width="480" height="120" as="geometry" />
        </mxCell>
        <mxCell id="mJA4CwDew6_XC7uNNBjb-5" value="&lt;h1&gt;&lt;span style=&quot;font-weight: normal&quot;&gt;&lt;font style=&quot;font-size: 24px&quot;&gt;コマンド&lt;/font&gt;&lt;/span&gt;&lt;br&gt;&lt;/h1&gt;&lt;p&gt;&lt;font size=&quot;3&quot;&gt;・運転1&lt;/font&gt;&lt;/p&gt;&lt;div&gt;&lt;div&gt;&lt;p&gt;&lt;font size=&quot;3&quot;&gt;・&lt;/font&gt;&lt;span style=&quot;font-size: medium&quot;&gt;運転&lt;/span&gt;&lt;font size=&quot;3&quot;&gt;2&lt;/font&gt;&lt;/p&gt;&lt;/div&gt;&lt;/div&gt;&lt;div&gt;&lt;div&gt;&lt;p&gt;&lt;font size=&quot;3&quot;&gt;・&lt;/font&gt;&lt;span style=&quot;font-size: medium&quot;&gt;運転&lt;/span&gt;&lt;font size=&quot;3&quot;&gt;3&lt;/font&gt;&lt;/p&gt;&lt;p&gt;&lt;font size=&quot;3&quot;&gt;・動力&lt;/font&gt;&lt;/p&gt;&lt;p&gt;&lt;font size=&quot;3&quot;&gt;・チャンネル&lt;/font&gt;&lt;/p&gt;&lt;p&gt;&lt;font size=&quot;3&quot;&gt;・ポート&lt;/font&gt;&lt;/p&gt;&lt;/div&gt;&lt;/div&gt;&lt;div&gt;&lt;font size=&quot;3&quot;&gt;&lt;br&gt;&lt;/font&gt;&lt;/div&gt;" style="text;html=1;strokeColor=none;fillColor=none;spacing=5;spacingTop=-20;whiteSpace=wrap;overflow=hidden;rounded=0;shadow=0;glass=0;sketch=0;" vertex="1" parent="rjAtlHc9Mm2-FmLIx99G-1">
          <mxGeometry x="30" y="20" width="500" height="380" as="geometry" />
        </mxCell>
        <mxCell id="mJA4CwDew6_XC7uNNBjb-6" value="&lt;span style=&quot;font-size: 18px&quot;&gt;&amp;gt; p0&lt;/span&gt;" style="text;html=1;strokeColor=none;fillColor=none;align=left;verticalAlign=middle;whiteSpace=wrap;rounded=0;shadow=0;glass=0;sketch=0;" vertex="1" parent="rjAtlHc9Mm2-FmLIx99G-1">
          <mxGeometry x="50" y="400" width="440" height="50" as="geometry" />
        </mxCell>
      </root>
    </mxGraphModel>
  </diagram>
</mxfile>
